<svg xmlns="http://www.w3.org/2000/svg" viewBox="0 0 512 512" fill="#007F00">
  <path d="M256 0c-16.367 0-32.2 2.212-47.271 6.152C243.303 39.764 268.057 93.63 268.057 153.606c0 7.837-.457 15.571-1.329 23.17 30.232-14.576 56.077-36.109 75.307-62.568C318.543 46.071 290.39 0 256 0zm-98.861 63.726C108.285 96.73 73.332 155.097 73.332 221.544c0 13.243 1.242 26.2 3.604 38.797 33.56-4.258 64.554-17.17 90.835-36.882-16.094-27.464-25.437-59.586-25.437-93.853 0-24.107 4.594-47.156 12.805-68.88zM354.861 63.726c8.211 21.724 12.805 44.773 12.805 68.88 0 34.267-9.343 66.389-25.437 93.853 26.281 19.712 57.275 32.624 90.835 36.882 2.362-12.597 3.604-25.554 3.604-38.797 0-66.447-34.953-124.814-83.807-157.818zM256 185.792c-23.56 0-42.667 19.107-42.667 42.667S232.44 271.126 256 271.126s42.667-19.107 42.667-42.667-19.107-42.667-42.667-42.667zm-107.225 55.659c-34.628 24.793-76.327 38.063-119.66 36.836C12.71 292.49 0 311.712 0 334.041c0 2.943.191 5.845.555 8.697 32.917-7.882 63.024-23.805 87.501-45.919 22.022 13.11 47.14 21.497 73.919 23.762-3.56-26.238-7.488-52.93-13.2-79.13zm214.45 0c-5.712 26.2-9.64 52.892-13.2 79.13 26.779-2.265 51.897-10.652 73.919-23.762 24.477 22.114 54.584 38.037 87.501 45.919.364-2.852.555-5.754.555-8.697 0-22.329-12.71-41.551-29.115-55.754-43.333 1.227-85.032-12.043-119.66-36.836zM256 303.126c-28.458 0-55.094 7.951-77.826 21.68 8.848 26.464 22.73 50.753 40.685 71.518-26.519 19.174-57.69 31.688-91.098 35.63 13.905 26.472 35.493 48.09 62.2 61.303 14.197-30.775 37.393-56.534 66.039-74.267 28.646 17.733 51.842 43.492 66.039 74.267 26.707-13.213 48.295-34.831 62.2-61.303-33.408-3.942-64.579-16.456-91.098-35.63 17.955-20.765 31.837-45.054 40.685-71.518-22.732-13.729-49.368-21.68-77.826-21.68z"/>
</svg>